# xmcd
#
# Track frame offsets:
#	150
#	15954
#	29797
#	45260
#	64013
#	77415
#	89634
#	105229
#	124497
#	143706
#	165917
#	185810
#	202247
#	220079
#	237682
#
# Disc length: 3399 seconds
#
# Revision: 0
# Processed by: cddbd v1.5.2PL0 Copyright (c) Steve Scherf et al.
# Submitted via: dBpowerAMP V4.0
#
DISCID=ce0d450f
DTITLE=George Strait - It Just Comes Natural
DYEAR=2006
DGENRE=Country
TTITLE0=Track01 - Give It Away
TTITLE1=Track02 - She Told Me So
TTITLE2=Track03 - That's My Kind Of Woman
TTITLE3=Track04 - Wrapped
TTITLE4=Track05 - It Just Comes Natural
TTITLE5=Track06 - He Must Have Really Hurt You Bad
TTITLE6=Track07 - A Heart Like Hers
TTITLE7=Track08 - Why Can't I Leave Her Alone
TTITLE8=Track09 - One Foot In Front Of The Other
TTITLE9=Track10 - I Ain't Her Cowboy Anymore
TTITLE10=Track11 - Texas Cookin'
TTITLE11=Track12 - A Better Rain
TTITLE12=Track13 - How Bout Them Cowgirls
TTITLE13=Track14 - What Say
TTITLE14=Track15 - Come On Joe
EXTD=Herb Lester
EXTT0=
EXTT1=
EXTT2=
EXTT3=
EXTT4=
EXTT5=
EXTT6=
EXTT7=
EXTT8=
EXTT9=
EXTT10=
EXTT11=
EXTT12=
EXTT13=
EXTT14=
PLAYORDER=
